<svg height="480pt" viewBox="0 0 480 480.09849" width="480pt" xmlns="http://www.w3.org/2000/svg"><path d="m432.050781 264.222656v-192.222656c-.027343-22.082031-17.921875-39.972656-40-40h-40v-8c0-13.253906-10.746093-24-24-24-13.257812 0-24 10.746094-24 24v8h-64v-8c0-13.253906-10.746093-24-24-24-13.257812 0-24 10.746094-24 24v8h-64v-8c0-13.253906-10.746093-24-24-24-13.257812 0-24 10.746094-24 24v8h-40c-22.082031.027344-39.9765622 17.917969-39.9999998 40v256c.0234376 22.082031 17.9179688 39.972656 39.9999998 40h200.40625c3.613281 55.304688 44.65625 100.925781 99.269531 110.351562 54.613282 9.425782 108.574219-19.800781 130.515626-70.695312 21.941406-50.890625 6.152343-110.191406-38.191407-143.433594zm-112-240.222656c0-4.417969 3.582031-8 8-8s8 3.582031 8 8v32c0 4.417969-3.582031 8-8 8s-8-3.582031-8-8zm-112 0c0-4.417969 3.582031-8 8-8s8 3.582031 8 8v32c0 4.417969-3.582031 8-8 8s-8-3.582031-8-8zm-112 0c0-4.417969 3.582031-8 8-8s8 3.582031 8 8v32c0 4.417969-3.582031 8-8 8s-8-3.582031-8-8zm-56 24h40v8c0 13.253906 10.742188 24 24 24 13.253907 0 24-10.746094 24-24v-8h64v8c0 13.253906 10.742188 24 24 24 13.253907 0 24-10.746094 24-24v-8h64v8c0 13.253906 10.742188 24 24 24 13.253907 0 24-10.746094 24-24v-8h40c13.253907 0 24 10.746094 24 24v40h-400v-40c0-13.253906 10.742188-24 24-24zm-24 280v-200h400v125.945312c-35.902343-19.027343-79-18.554687-114.476562 1.253907-35.472657 19.808593-58.484375 56.253906-61.117188 96.800781h-200.40625c-13.257812 0-24-10.746094-24-24zm344 136c-57.4375 0-104-46.5625-104-104s46.5625-104 104-104 104 46.5625 104 104c-.066406 57.410156-46.589843 103.933594-104 104zm0 0"/><path d="m368.050781 337.472656v-41.472656h-16v41.472656c-6.777343 2.417969-12.109375 7.75-14.53125 14.527344h-25.46875v16h25.46875c3.703125 10.53125 14.191407 17.109375 25.28125 15.855469 11.09375-1.257813 19.847657-10.007813 21.101563-21.101563s-5.320313-21.582031-15.851563-25.28125zm-8 30.527344c-4.417969 0-8-3.582031-8-8s3.582031-8 8-8 8 3.582031 8 8-3.582031 8-8 8zm0 0"/><path d="m360.050781 264c-53.019531 0-96 42.980469-96 96s42.980469 96 96 96 96-42.980469 96-96c-.058593-52.996094-43.007812-95.941406-96-96zm0 176c-44.183593 0-80-35.816406-80-80s35.816407-80 80-80c44.179688 0 80 35.816406 80 80-.050781 44.164062-35.839843 79.953125-80 80zm0 0"/><path d="m176.050781 160c-17.675781 0-32 14.328125-32 32s14.324219 32 32 32c17.671875 0 32-14.328125 32-32s-14.328125-32-32-32zm0 48c-8.839843 0-16-7.164062-16-16s7.160157-16 16-16c8.835938 0 16 7.164062 16 16s-7.164062 16-16 16zm0 0"/><path d="m256.050781 224c17.671875 0 32-14.328125 32-32s-14.328125-32-32-32c-17.675781 0-32 14.328125-32 32s14.324219 32 32 32zm0-48c8.835938 0 16 7.164062 16 16s-7.164062 16-16 16c-8.839843 0-16-7.164062-16-16s7.160157-16 16-16zm0 0"/><path d="m336.050781 224c17.671875 0 32-14.328125 32-32s-14.328125-32-32-32c-17.675781 0-32 14.328125-32 32s14.324219 32 32 32zm0-48c8.835938 0 16 7.164062 16 16s-7.164062 16-16 16c-8.839843 0-16-7.164062-16-16s7.160157-16 16-16zm0 0"/><path d="m96.050781 160c-17.675781 0-32 14.328125-32 32s14.324219 32 32 32c17.671875 0 32-14.328125 32-32s-14.328125-32-32-32zm0 48c-8.839843 0-16-7.164062-16-16s7.160157-16 16-16c8.835938 0 16 7.164062 16 16s-7.164062 16-16 16zm0 0"/><path d="m176.050781 240c-17.675781 0-32 14.328125-32 32s14.324219 32 32 32c17.671875 0 32-14.328125 32-32s-14.328125-32-32-32zm0 48c-8.839843 0-16-7.164062-16-16s7.160157-16 16-16c8.835938 0 16 7.164062 16 16s-7.164062 16-16 16zm0 0"/><path d="m245.378906 302.167969 5.328125-15.070313c-6.332031-2.253906-10.578125-8.21875-10.636719-14.9375-.058593-6.71875 4.085938-12.757812 10.378907-15.117187 6.289062-2.363281 13.382812-.539063 17.761719 4.558593l12.132812-10.402343c-8.753906-10.203125-22.949219-13.847657-35.535156-9.121094-12.589844 4.726563-20.878906 16.816406-20.75 30.261719.128906 13.441406 8.644531 25.375 21.320312 29.859375zm0 0"/><path d="m96.050781 240c-17.675781 0-32 14.328125-32 32s14.324219 32 32 32c17.671875 0 32-14.328125 32-32s-14.328125-32-32-32zm0 48c-8.839843 0-16-7.164062-16-16s7.160157-16 16-16c8.835938 0 16 7.164062 16 16s-7.164062 16-16 16zm0 0"/></svg>